<svg width="118" height="37" viewBox="0 0 118 37" fill="none" xmlns="http://www.w3.org/2000/svg">
<path d="M0.0859375 24V0.399999H1.28594V24H0.0859375ZM2.48594 24V0.399999H3.68594V24H2.48594ZM7.28594 24V0.399999H9.68594V24H7.28594ZM8.16594 34.04H5.16594L4.24594 36.76H3.20594L6.60594 27.32H6.72594L10.1659 36.76H9.08594L8.16594 34.04ZM7.88594 33.24L6.68594 29.72L5.44594 33.24H7.88594ZM13.2891 24V0.399999H15.6891V24H13.2891ZM16.8891 24V0.399999H20.4891V24H16.8891ZM21.6891 24V0.399999H22.8891V24H21.6891ZM19.8491 36.92C18.6491 36.92 17.6757 36.52 16.9291 35.72L17.4891 34.8L17.5291 34.68L17.6491 34.72C17.6491 34.7467 17.6624 34.8 17.6891 34.88C17.6891 34.9333 17.7157 35 17.7691 35.08C17.7957 35.1333 17.8491 35.1867 17.9291 35.24C18.4891 35.72 19.1824 35.96 20.0091 35.96C20.5424 35.96 20.9957 35.8133 21.3691 35.52C21.7424 35.2 21.9291 34.8267 21.9291 34.4C21.9291 34.1067 21.8624 33.8533 21.7291 33.64C21.6224 33.4533 21.4224 33.2667 21.1291 33.08C20.8357 32.8933 20.3824 32.6667 19.7691 32.4C18.8624 32.0533 18.2091 31.6533 17.8091 31.2C17.4357 30.7467 17.2491 30.24 17.2491 29.68C17.2491 28.9867 17.5024 28.4267 18.0091 28C18.5157 27.5733 19.1957 27.36 20.0491 27.36C20.5557 27.36 21.0357 27.4667 21.4891 27.68C21.9157 27.8933 22.3024 28.1733 22.6491 28.52L21.9691 29.44L21.8891 29.36C21.8891 29.3333 21.8757 29.2933 21.8491 29.24C21.8491 29.16 21.8224 29.0933 21.7691 29.04C21.7424 28.96 21.6891 28.8933 21.6091 28.84C21.3957 28.6267 21.1424 28.4667 20.8491 28.36C20.5824 28.28 20.2624 28.24 19.8891 28.24C19.4091 28.24 19.0357 28.3733 18.7691 28.64C18.4757 28.9067 18.3291 29.2267 18.3291 29.6C18.3291 29.8933 18.3824 30.1467 18.4891 30.36C18.6224 30.5733 18.8491 30.7733 19.1691 30.96C19.4891 31.1733 19.9691 31.4 20.6091 31.64C21.4891 32.0133 22.1024 32.3867 22.4491 32.76C22.7691 33.16 22.9291 33.6533 22.9291 34.24C22.9291 34.6933 22.8224 35.12 22.6091 35.52C22.3691 35.92 22.0224 36.2533 21.5691 36.52C21.0891 36.7867 20.5157 36.92 19.8491 36.92ZM26.4922 24V0.399999H28.8922V24H26.4922ZM30.0922 24V0.399999H33.6922V24H30.0922ZM37.2922 24V0.399999H38.4922V24H37.2922ZM32.4522 28.4H29.8522V27.48H36.2522V28.4H33.5322V36.76H32.4522V28.4ZM39.6953 24V0.399999H40.8953V24H39.6953ZM44.4953 24V0.399999H46.8953V24H44.4953ZM48.0953 24V0.399999H49.2953V24H48.0953ZM43.4553 27.48H49.1353V28.4H44.4153V31.44H48.3353V32.4H44.4153V35.84H49.0953V36.76H43.4553V27.48ZM52.8984 24V0.399999H55.2984V24H52.8984ZM58.8984 24V0.399999H60.0984V24H58.8984ZM61.2984 24V0.399999H64.8984V24H61.2984ZM56.6184 27.48H59.3384C60.4051 27.48 61.1784 27.72 61.6584 28.2C62.1651 28.6533 62.4184 29.3067 62.4184 30.16C62.4184 30.6933 62.2451 31.2 61.8984 31.68C61.5518 32.16 61.0984 32.48 60.5384 32.64L62.6984 36.76H61.5384L59.4584 32.68H57.6584V36.76H56.6184V27.48ZM59.4584 31.76C60.0984 31.76 60.5784 31.6133 60.8984 31.32C61.1918 31.0533 61.3384 30.6667 61.3384 30.16C61.3384 29.6533 61.1918 29.24 60.8984 28.92C60.5784 28.6267 60.0984 28.48 59.4584 28.48H57.6584V31.76H59.4584ZM66.1016 24V0.399999H68.5016V24H66.1016ZM72.1016 24V0.399999H73.3016V24H72.1016ZM76.9016 24V0.399999H78.1016V24H76.9016ZM70.1816 35.88H72.0216V28.36H70.3016V27.48H74.9016V28.36H73.0616V35.88H74.9816V36.76H70.1816V35.88ZM79.3047 24V0.399999H80.5047V24H79.3047ZM84.1047 24V0.399999H86.5047V24H84.1047ZM87.7047 24V0.399999H91.3047V24H87.7047ZM83.1847 27.48H84.3847V27.6C84.3314 27.6533 84.2914 27.72 84.2647 27.8C84.2647 27.8533 84.2647 27.9733 84.2647 28.16V35.88H88.7047V36.76H83.1847V27.48ZM92.5078 24V0.399999H94.9078V24H92.5078ZM98.5078 24V0.399999H99.7078V24H98.5078ZM103.308 24V0.399999H104.508V24H103.308ZM96.5878 35.88H98.4278V28.36H96.7078V27.48H101.308V28.36H99.4678V35.88H101.388V36.76H96.5878V35.88ZM105.711 24V0.399999H108.111V24H105.711ZM109.311 24V0.399999H112.911V24H109.311ZM116.511 24V0.399999H117.711V24H116.511ZM111.671 28.4H109.071V27.48H115.471V28.4H112.751V36.76H111.671V28.4Z" fill="white"/>
</svg>
