<svg width="645" height="275" viewBox="0 0 645 275" fill="none" xmlns="http://www.w3.org/2000/svg">
<path d="M122.92 274.144C97.6613 274.144 75.816 268.171 57.384 256.224C38.952 243.936 24.7867 227.381 14.888 206.56C4.98933 185.739 0.0400009 162.699 0.0400009 137.44C0.0400009 111.84 5.50134 88.8 16.424 68.32C27.3467 47.4987 43.048 31.1146 63.528 19.168C84.008 6.87999 108.584 0.735992 137.256 0.735992C164.904 0.735992 188.627 6.70933 208.424 18.656C228.221 30.6027 243.411 46.816 253.992 67.296C264.915 87.776 270.376 110.645 270.376 135.904V268H222.76V214.752H221.736C216.616 224.651 209.619 234.208 200.744 243.424C192.211 252.299 181.459 259.637 168.488 265.44C155.517 271.243 140.328 274.144 122.92 274.144ZM135.208 233.696C152.275 233.696 167.293 229.6 180.264 221.408C193.576 212.875 203.816 201.269 210.984 186.592C218.493 171.573 222.248 154.848 222.248 136.416C222.248 118.325 218.664 102.112 211.496 87.776C204.669 73.44 194.771 62.176 181.8 53.984C168.829 45.4507 153.64 41.184 136.232 41.184C117.8 41.184 101.928 45.4507 88.616 53.984C75.6453 62.5173 65.576 74.1227 58.408 88.8C51.5813 103.136 48.168 119.52 48.168 137.952C48.168 155.701 51.5813 171.915 58.408 186.592C65.2347 200.928 75.1333 212.363 88.104 220.896C101.075 229.429 116.776 233.696 135.208 233.696ZM611.104 268C591.307 268 575.947 263.392 565.024 254.176C554.101 244.619 548.64 229.6 548.64 209.12V14.048H596.256V197.344C596.256 206.901 598.816 214.581 603.936 220.384C609.397 226.187 617.419 229.088 628 229.088H643.872V268H611.104ZM369.44 268V14.048H417.056V268H369.44ZM321.312 47.328V6.87997H644.896V47.328H321.312Z" fill="url(#paint0_linear_2_18)"/>
<defs>
<linearGradient id="paint0_linear_2_18" x1="-23" y1="-318" x2="659.554" y2="494.695" gradientUnits="userSpaceOnUse">
<stop stop-color="#9B9BDB"/>
<stop offset="1" stop-color="#2727C5"/>
</linearGradient>
</defs>
</svg>
